<svg width="18" height="18" viewBox="0 0 18 18" fill="none" xmlns="http://www.w3.org/2000/svg">
<g clip-path="url(#clip0_210_287)">
<path d="M15.1952 9.0431C14.8089 9.67966 14.454 9.95951 13.8398 10.1122C13.1561 10.2821 12.1056 10.2924 10.2137 10.1477L6.13063 9.82059C6.1248 9.82013 6.11907 9.82034 6.11327 9.82006C5.9819 9.79915 5.84766 9.78822 5.71098 9.78822H2.97262C2.38045 9.78822 1.803 9.54583 1.38824 9.12316L0.0944233 7.80468C0.0653944 7.77512 0.0335541 7.75017 -8.58307e-06 7.72887V4.55555C-8.58307e-06 4.26442 0.236018 4.02839 0.527148 4.02839H1.32143C1.49771 4.02839 1.66229 4.11646 1.76002 4.26315L2.85285 5.90243C3.06677 6.22325 3.42467 6.41482 3.81031 6.41482H4.39271C4.47238 6.41482 4.5452 6.36973 4.58073 6.29842L5.72613 3.99859C5.80257 3.84512 5.94894 3.73849 6.1184 3.71259C6.28783 3.68662 6.45947 3.74485 6.57826 3.86849C6.59506 3.88595 7.67882 5.00335 9.35739 6.17985L8.50828 7.36686C8.33892 7.60366 8.39354 7.93292 8.63037 8.10231C8.72329 8.16877 8.83044 8.20075 8.93661 8.20075C9.10098 8.20075 9.26288 8.12413 9.36582 7.98026L10.224 6.78049C10.2282 6.77469 10.2316 6.76857 10.2355 6.76267C10.5634 6.9683 10.9073 7.17041 11.2647 7.36338L10.4525 8.49887C10.2844 8.73384 10.324 9.06623 10.5549 9.23984C10.6501 9.31146 10.7614 9.34583 10.8715 9.34583C11.0358 9.34583 11.1978 9.26922 11.3007 9.12534L12.1589 7.92557C12.1795 7.89672 12.1967 7.86646 12.2108 7.83536C12.3699 7.90811 12.5311 7.97843 12.694 8.0458C13.7145 8.4677 14.5503 8.77766 15.218 9.00466L15.1952 9.0431ZM6.86837 6.29993C6.57724 6.29993 6.34121 6.53596 6.34121 6.82709C6.34121 7.11822 6.57724 7.35424 6.86837 7.35424C7.1595 7.35424 7.39552 7.11822 7.39552 6.82709C7.39552 6.53592 7.1595 6.29993 6.86837 6.29993Z" fill="#23CC8C"/>
<path d="M0.635807 9.86156C1.24748 10.4849 2.09929 10.8425 2.97268 10.8425H5.71103C6.21256 10.8425 6.68862 11.0985 7.05158 11.5633C7.38625 11.9919 7.59356 12.5552 7.65063 13.1757H6.45129V13.7664C6.45129 14.0575 6.21527 14.2935 5.92414 14.2935C5.63301 14.2935 5.39698 14.0575 5.39698 13.7664V13.1757H4.41307V13.7664C4.41307 14.0575 4.17705 14.2935 3.88592 14.2935C3.59479 14.2935 3.35876 14.0575 3.35876 13.7664V13.1757H2.45259V13.7664C2.45259 14.0575 2.21656 14.2935 1.92543 14.2935C1.63431 14.2935 1.39828 14.0575 1.39828 13.7664V13.1757H0.527248C0.236119 13.1757 9.58443e-05 12.9397 9.58443e-05 12.6485V9.21368L0.635807 9.86156Z" fill="#23CC8C"/>
<path d="M10.1313 11.1988C10.9905 11.2645 11.7194 11.3043 12.3448 11.3043C14.367 11.3043 15.3096 10.8884 16.0983 9.587C16.0994 9.58528 16.1004 9.58356 16.1014 9.58184L16.171 9.46397C16.1972 9.41965 16.2158 9.37298 16.2278 9.3255C16.361 9.36447 16.482 9.39835 16.5905 9.42756C17.4204 9.65079 18 10.4079 18 11.2686C18 12.1956 17.335 12.9699 16.4571 13.1404V13.7664C16.4571 14.0575 16.2211 14.2935 15.9299 14.2935C15.6388 14.2935 15.4028 14.0575 15.4028 13.7664V13.1757H14.2253V13.7664C14.2253 14.0575 13.9893 14.2935 13.6981 14.2935C13.407 14.2935 13.171 14.0575 13.171 13.7664V13.1757H11.9935V13.7664C11.9935 14.0575 11.7575 14.2935 11.4664 14.2935C11.1752 14.2935 10.9392 14.0575 10.9392 13.7664V13.1757H9.76177V13.7664C9.76177 14.0575 9.52575 14.2935 9.23462 14.2935C8.94345 14.2935 8.70747 14.0575 8.70747 13.7664V13.1602C8.64551 12.337 8.37743 11.5992 7.96576 11.0253L10.1313 11.1988Z" fill="#23CC8C"/>
</g>
<defs>
<clipPath id="clip0_210_287">
<rect width="18" height="18" fill="white" transform="matrix(-1 0 0 1 18 0)"/>
</clipPath>
</defs>
</svg>
