<svg width="16" height="16" viewBox="0 0 16 16" fill="none" xmlns="http://www.w3.org/2000/svg">
<g clip-path="url(#clip0_226_9748)">
<path d="M15.7332 8C15.7332 12.271 12.2708 15.7333 7.99987 15.7333C3.72891 15.7333 0.266541 12.271 0.266541 8C0.266541 3.72903 3.72891 0.266663 7.99987 0.266663C12.2708 0.266663 15.7332 3.72903 15.7332 8Z" fill="white"/>
<path d="M13.8665 6.4L14.3998 3.73334L15.4665 6.13334L15.7332 8.53334L13.8665 6.4Z" fill="#333333"/>
<path d="M2.13321 6.4L1.59987 3.73334L0.533207 6.13334L0.266541 8.53334L2.13321 6.4Z" fill="#333333"/>
<path d="M1.59985 12.2667L4.53319 12.8L6.13319 15.4667L3.46652 14.4L1.59985 12.2667Z" fill="#333333"/>
<path d="M14.3999 12.2667L11.4665 12.8L9.86652 15.4667L12.5332 14.4L14.3999 12.2667Z" fill="#333333"/>
<path d="M5.06653 0.8L7.99986 2.13333L10.9332 0.8L7.99986 0L5.06653 0.8Z" fill="#333333"/>
<path d="M5.33325 7.46668L7.99992 5.33334L10.6666 7.46668L9.86658 10.6667H6.13325L5.33325 7.46668Z" fill="#333333"/>
<path d="M7.99988 0C3.58165 0 -0.00012207 3.58177 -0.00012207 8C-0.00012207 12.4182 3.58165 16 7.99988 16C12.4181 16 15.9999 12.4182 15.9999 8C15.9949 3.58385 12.416 0.00494793 7.99988 0ZM14.1953 3.83737L13.6409 6.19414L10.7199 7.16771L8.26655 5.20534V2.3138L11.0665 1.19388C12.3343 1.76823 13.4173 2.68333 14.1953 3.83737ZM14.2399 12.0921L11.5953 12.5096L10.1553 10.6074L10.8889 7.67409L13.7775 6.71146L15.4322 8.69701C15.3194 9.90938 14.9099 11.0754 14.2399 12.0921ZM4.41615 12.5115L1.7599 12.0921C1.08985 11.0751 0.680477 9.90885 0.567847 8.69622L2.22123 6.71068L5.10977 7.67331L5.84337 10.6082L4.41615 12.5115ZM0.535555 7.90052C0.549748 6.71094 0.849878 5.54206 1.41056 4.49284L1.84311 6.33281L0.535555 7.90052ZM6.34141 10.4L5.63399 7.56745L7.99988 5.67487L10.3663 7.56823L9.65834 10.4H6.34141ZM14.1566 6.33177L14.5892 4.4918C15.1499 5.54102 15.45 6.70977 15.4642 7.89948L14.1566 6.33177ZM10.3393 0.910677L7.99988 1.84635L5.64792 0.914974C7.17032 0.407552 8.81602 0.40612 10.3393 0.910677ZM4.92045 1.2L7.73321 2.31471V5.20534L5.27983 7.16771L2.35886 6.19414L1.80444 3.83737C2.57983 2.6875 3.65821 1.77474 4.92045 1.2ZM2.20548 12.7023L4.37319 13.0448L5.68412 15.0982C4.31876 14.6497 3.11121 13.8181 2.20548 12.7023ZM6.44871 15.3035L4.85743 12.8122L6.26654 10.9333H9.73321L11.1625 12.8214L9.77592 15.2514C8.68516 15.5201 7.54779 15.5383 6.44897 15.3048L6.44871 15.3035ZM10.5167 15.029L11.6533 13.04L13.7953 12.7021C12.9348 13.7618 11.8011 14.5664 10.5167 15.029Z" fill="black"/>
</g>
<defs>
<clipPath id="clip0_226_9748">
<rect width="16" height="16" fill="white"/>
</clipPath>
</defs>
</svg>
