<svg width="17" height="16" viewBox="0 0 17 16" fill="none" xmlns="http://www.w3.org/2000/svg">
<path d="M14.8077 7.52941C14.8077 11.5491 11.549 14.8078 7.52929 14.8078C3.50956 14.8078 0.250854 11.5491 0.250854 7.52941C0.250854 3.50968 3.50956 0.250977 7.52929 0.250977C11.549 0.250977 14.8077 3.50968 14.8077 7.52941Z" fill="white"/>
<path d="M13.0508 6.02354L13.5527 3.51373L14.5567 5.77256L14.8076 8.03138L13.0508 6.02354Z" fill="#333333"/>
<path d="M2.00772 6.02354L1.50576 3.51373L0.501835 5.77256L0.250854 8.03138L2.00772 6.02354Z" fill="#333333"/>
<path d="M1.50574 11.5451L4.26652 12.0471L5.7724 14.5569L3.2626 13.5529L1.50574 11.5451Z" fill="#333333"/>
<path d="M13.5528 11.5451L10.792 12.0471L9.28613 14.5569L11.7959 13.5529L13.5528 11.5451Z" fill="#333333"/>
<path d="M4.76843 0.752941L7.52922 2.00784L10.29 0.752941L7.52922 0L4.76843 0.752941Z" fill="#333333"/>
<path d="M5.01953 7.02747L7.52934 5.01962L10.0391 7.02747L9.2862 10.0392H5.77247L5.01953 7.02747Z" fill="#333333"/>
<path d="M7.52929 0C3.37096 0 -0.00012207 3.37108 -0.00012207 7.52941C-0.00012207 11.6877 3.37096 15.0588 7.52929 15.0588C11.6876 15.0588 15.0587 11.6877 15.0587 7.52941C15.054 3.37304 11.6857 0.00465688 7.52929 0ZM13.3603 3.61164L12.8385 5.82978L10.0893 6.74608L7.78027 4.89914V2.1777L10.4156 1.12365C11.6087 1.66422 12.6281 2.52549 13.3603 3.61164ZM13.4022 11.3808L10.9132 11.7738L9.55797 9.98346L10.2484 7.22267L12.967 6.31667L14.5244 8.18542C14.4183 9.32647 14.0328 10.4239 13.4022 11.3808ZM4.15637 11.7755L1.65637 11.3808C1.02574 10.4237 0.640442 9.32598 0.534437 8.18468L2.09056 6.31593L4.80919 7.22194L5.49963 9.98419L4.15637 11.7755ZM0.504045 7.43578C0.517402 6.31618 0.799878 5.21605 1.32757 4.22855L1.73468 5.96029L0.504045 7.43578ZM5.96838 9.78824L5.30257 7.1223L7.52929 5.34105L9.7565 7.12304L9.0902 9.78824H5.96838ZM13.3239 5.95931L13.731 4.22757C14.2587 5.21507 14.5412 6.31507 14.5545 7.4348L13.3239 5.95931ZM9.73113 0.857108L7.52929 1.73775L5.31569 0.861152C6.74853 0.383578 8.29743 0.38223 9.73113 0.857108ZM4.63101 1.12941L7.27831 2.17855V4.89914L4.96924 6.74608L2.2201 5.82978L1.69828 3.61164C2.42806 2.52941 3.44302 1.67034 4.63101 1.12941ZM2.07574 11.9551L4.11593 12.2775L5.34976 14.21C4.06471 13.788 2.92819 13.0053 2.07574 11.9551ZM6.06936 14.4033L4.57169 12.0586L5.89792 10.2902H9.16066L10.5059 12.0672L9.20086 14.3543C8.17427 14.6071 7.1038 14.6243 6.06961 14.4045L6.06936 14.4033ZM9.89804 14.145L10.9678 12.2729L12.9838 11.9549C12.1739 12.9523 11.1069 13.7096 9.89804 14.145Z" fill="black"/>
<g clip-path="url(#clip0_85_68)">
<path d="M13.1763 15.9983C15.2555 15.9983 16.941 14.3139 16.941 12.2361C16.941 10.1583 15.2555 8.47385 13.1763 8.47385C11.0971 8.47385 9.41162 10.1583 9.41162 12.2361C9.41162 14.3139 11.0971 15.9983 13.1763 15.9983Z" fill="#E04F5F"/>
<path d="M14.3708 14.0114L14.953 13.4291L11.9824 10.4586L11.4002 11.0408L14.3708 14.0114Z" fill="white"/>
<path d="M11.9826 14.0121L14.9531 11.0415L14.3709 10.4593L11.4003 13.4299L11.9826 14.0121Z" fill="white"/>
</g>
<defs>
<clipPath id="clip0_85_68">
<rect width="7.52941" height="7.52941" fill="white" transform="translate(9.41162 8.47058)"/>
</clipPath>
</defs>
</svg>
