<svg width="16" height="16" viewBox="0 0 16 16" fill="none" xmlns="http://www.w3.org/2000/svg">
<g clip-path="url(#clip0_3161_1652)">
<path d="M15.7342 7.99994C15.7342 12.2709 12.2719 15.7333 8.00091 15.7333C3.72995 15.7333 0.267578 12.2709 0.267578 7.99994C0.267578 3.72897 3.72995 0.266602 8.00091 0.266602C12.2719 0.266602 15.7342 3.72897 15.7342 7.99994Z" fill="white"/>
<path d="M13.8672 6.40007L14.4005 3.7334L15.4672 6.1334L15.7339 8.5334L13.8672 6.40007Z" fill="#CB2027"/>
<path d="M2.13425 6.40007L1.60091 3.7334L0.534245 6.1334L0.267578 8.5334L2.13425 6.40007Z" fill="#CB2027"/>
<path d="M1.60156 12.2666L4.5349 12.7999L6.1349 15.4666L3.46823 14.3999L1.60156 12.2666Z" fill="#CB2027"/>
<path d="M14.4005 12.2666L11.4672 12.7999L9.86719 15.4666L12.5339 14.3999L14.4005 12.2666Z" fill="#CB2027"/>
<path d="M5.06836 0.8L8.00169 2.13333L10.935 0.8L8.00169 0L5.06836 0.8Z" fill="#CB2027"/>
<path d="M5.33398 7.46634L8.00065 5.33301L10.6673 7.46634L9.86732 10.6663H6.13398L5.33398 7.46634Z" fill="#CB2027"/>
<path d="M8 0C3.58177 0 0 3.58177 0 8C0 12.4182 3.58177 16 8 16C12.4182 16 16 12.4182 16 8C15.9951 3.58385 12.4161 0.00494793 8 0ZM14.1954 3.83737L13.641 6.19414L10.7201 7.16771L8.26667 5.20534V2.3138L11.0667 1.19388C12.3344 1.76823 13.4174 2.68333 14.1954 3.83737ZM14.24 12.0921L11.5954 12.5096L10.1555 10.6074L10.8891 7.67409L13.7776 6.71146L15.4323 8.69701C15.3195 9.90938 14.91 11.0754 14.24 12.0921ZM4.41628 12.5115L1.76003 12.0921C1.08997 11.0751 0.680599 9.90885 0.567969 8.69622L2.22135 6.71068L5.1099 7.67331L5.84349 10.6082L4.41628 12.5115ZM0.535677 7.90052C0.54987 6.71094 0.85 5.54206 1.41068 4.49284L1.84323 6.33281L0.535677 7.90052ZM6.34154 10.4L5.63411 7.56745L8 5.67487L10.3664 7.56823L9.65846 10.4H6.34154ZM14.1568 6.33177L14.5893 4.4918C15.15 5.54102 15.4501 6.70977 15.4643 7.89948L14.1568 6.33177ZM10.3395 0.910677L8 1.84635L5.64805 0.914974C7.17044 0.407552 8.81615 0.40612 10.3395 0.910677ZM4.92057 1.2L7.73333 2.31471V5.20534L5.27995 7.16771L2.35898 6.19414L1.80456 3.83737C2.57995 2.6875 3.65833 1.77474 4.92057 1.2ZM2.2056 12.7023L4.37331 13.0448L5.68425 15.0982C4.31888 14.6497 3.11133 13.8181 2.2056 12.7023ZM6.44883 15.3035L4.85755 12.8122L6.26667 10.9333H9.73333L11.1626 12.8214L9.77604 15.2514C8.68529 15.5201 7.54792 15.5383 6.44909 15.3048L6.44883 15.3035ZM10.5168 15.029L11.6534 13.04L13.7954 12.7021C12.9349 13.7618 11.8012 14.5664 10.5168 15.029Z" fill="#CB2027"/>
</g>
<defs>
<clipPath id="clip0_3161_1652">
<rect width="16" height="16" fill="white"/>
</clipPath>
</defs>
</svg>
