<svg width="25" height="25" viewBox="0 0 25 25" fill="none" xmlns="http://www.w3.org/2000/svg">
<g clip-path="url(#clip0_41_22)">
<path d="M9.34431 13.5107L12.6226 17.8368L15.4866 13.7696L12.2083 9.44356L9.34431 13.5107Z" fill="#CB2027"/>
<path d="M21.5854 5.6816L15.0767 3.9376C14.2487 3.71573 13.3971 4.14445 13.0664 4.90893L15.87 4.90894C16.1264 4.90894 16.3814 4.94241 16.6279 5.00845C17.9066 5.35107 18.7996 6.51484 18.7997 7.83858L18.7996 18.9714C18.7996 19.2674 18.7558 19.5567 18.6714 19.832C19.2443 19.6801 19.7231 19.2349 19.8872 18.6225L22.7939 7.77467C23.0378 6.86443 22.4957 5.92549 21.5854 5.6816Z" fill="#CB2027"/>
<path d="M15.87 6.08078L9.22937 6.08077C8.26009 6.08076 7.47155 6.86932 7.47154 7.8386L7.47156 18.9714C7.47155 19.9407 8.26011 20.7292 9.22939 20.7293L15.87 20.7293C16.8393 20.7293 17.6278 19.9407 17.6278 18.9714L17.6278 7.83861C17.6278 6.86932 16.8392 6.08078 15.87 6.08078ZM9.8153 9.98705C9.4917 9.98704 9.22937 9.7247 9.22938 9.4011L9.22939 8.42455C9.2294 8.10094 9.49174 7.83861 9.81534 7.83862C10.1389 7.83862 10.4013 8.10097 10.4013 8.42457L10.4013 9.40112C10.4013 9.72469 10.1389 9.98705 9.8153 9.98705ZM13.0466 16.2546C12.9395 16.4259 12.7517 16.53 12.5497 16.53C12.3476 16.53 12.1599 16.4259 12.0528 16.2546L10.4659 13.7156C10.3472 13.5256 10.3472 13.2845 10.4659 13.0944L12.0528 10.5554C12.1599 10.384 12.3477 10.28 12.5497 10.28C12.7517 10.28 12.9395 10.3841 13.0466 10.5553L14.6335 13.0944C14.7522 13.2844 14.7522 13.5255 14.6335 13.7155L13.0466 16.2546ZM15.87 18.3855C15.87 18.7091 15.6076 18.9714 15.284 18.9714C14.9604 18.9714 14.6981 18.7091 14.6981 18.3855L14.6981 17.4089C14.6981 17.0853 14.9605 16.823 15.2841 16.823C15.6077 16.823 15.87 17.0853 15.87 17.4089L15.87 18.3855Z" fill="#CB2027"/>
<rect x="8.00003" y="7" width="7" height="5" fill="#CB2027"/>
<rect x="10" y="15" width="7" height="5" fill="#CB2027"/>
</g>
<defs>
<clipPath id="clip0_41_22">
<rect width="20" height="20" fill="white" transform="translate(5.17639) rotate(15)"/>
</clipPath>
</defs>
</svg>
