<svg width="20" height="21" viewBox="0 0 20 21" fill="none" xmlns="http://www.w3.org/2000/svg">
<path fill-rule="evenodd" clip-rule="evenodd" d="M14.3588 0.979126H5.6412C2.25586 0.979126 0 3.37382 0 6.81091V14.939C0 18.3793 2.24992 20.7708 5.6412 20.7708H14.3588C17.7501 20.7708 20 18.3793 20 14.939V6.81091C20 3.3706 17.7501 0.979126 14.3588 0.979126ZM5.6412 2.35994H14.3588C16.9563 2.35994 18.6047 4.11202 18.6047 6.81091V14.939C18.6047 17.6379 16.9563 19.39 14.3588 19.39H5.6412C3.04372 19.39 1.39535 17.6379 1.39535 14.939V6.81091C1.39535 4.1156 3.04923 2.35994 5.6412 2.35994ZM10.7267 6.10411C10.6805 5.76713 10.3886 5.50739 10.0354 5.50739C9.65012 5.50739 9.33776 5.8165 9.33776 6.1978V15.5346L9.34413 15.6283C9.39033 15.9653 9.68223 16.225 10.0354 16.225C10.4208 16.225 10.7331 15.9159 10.7331 15.5346V6.1978L10.7267 6.10411ZM6.38566 9.12588C6.33946 8.78889 6.04756 8.52915 5.69435 8.52915C5.30904 8.52915 4.99668 8.83826 4.99668 9.21956V15.5346L5.00305 15.6283C5.04924 15.9653 5.34115 16.225 5.69435 16.225C6.07967 16.225 6.39203 15.9159 6.39203 15.5346V9.21956L6.38566 9.12588ZM14.3056 11.8662C14.6589 11.8662 14.9508 12.126 14.997 12.463L15.0033 12.5566V15.5346C15.0033 15.9159 14.691 16.225 14.3056 16.225C13.9524 16.225 13.6605 15.9653 13.6143 15.6283L13.608 15.5346V12.5566C13.608 12.1753 13.9203 11.8662 14.3056 11.8662Z" fill="#C6C8CB"/>
</svg>
