<svg width="14" height="14" viewBox="0 0 14 14" fill="none" xmlns="http://www.w3.org/2000/svg">
<g clip-path="url(#clip0_85_23)">
<path d="M7.19725 3.37772L4.77883 0.153157C4.69821 0.0563696 4.57731 0 4.45635 0C4.33539 0 4.21452 0.0563696 4.13387 0.153157C2.47007 2.37808 2.98263 1.69479 1.71545 3.37769C1.51393 3.6437 1.70745 4.0226 2.03793 4.0226H3.24713V11.7346C3.24713 11.9603 3.42446 12.1377 3.6502 12.1377H5.26247C5.48822 12.1377 5.66555 11.9603 5.66555 11.7346V4.02263H6.87477C7.20525 4.02263 7.39877 3.6437 7.19725 3.37772Z" fill="#F44336"/>
<path d="M11.7116 9.71932H10.5024V2.00729C10.5024 1.78154 10.325 1.60422 10.0993 1.60422H8.48702C8.26127 1.60422 8.08395 1.78154 8.08395 2.00729V9.71932H6.87473C6.54424 9.71932 6.35072 10.0982 6.55225 10.3642L7.58414 11.7347L8.97066 13.5888C9.05131 13.7016 9.17218 13.75 9.29314 13.75C9.4141 13.75 9.53497 13.7016 9.61562 13.5888L12.034 10.3642C12.2356 10.0982 12.042 9.71932 11.7116 9.71932Z" fill="#23CC8C"/>
</g>
<defs>
<clipPath id="clip0_85_23">
<rect width="13.75" height="13.75" fill="white" transform="translate(-0.000244141)"/>
</clipPath>
</defs>
</svg>
