<svg width="45" height="18" viewBox="0 0 45 18" fill="none" xmlns="http://www.w3.org/2000/svg">
<g clip-path="url(#clip0_3321_675)">
<rect x="0.00195312" width="45.0007" height="18" rx="9" fill="#CB2027"/>
<path d="M27.3779 6.40224V10.3463C27.3779 11.4666 28.2853 12.3739 29.4056 12.3739H35.294C35.7106 12.3739 36.0532 12.0313 36.0532 11.6147V7.66138C36.0532 6.54111 35.1458 5.63379 34.0256 5.63379H28.1371C27.7205 5.63379 27.3779 5.96709 27.3779 6.37446V6.40224Z" fill="white"/>
<path d="M36.7286 10.7912L38.3581 12.217C38.6173 12.4484 39.0247 12.4207 39.2562 12.1614C39.358 12.0411 39.4135 11.8929 39.4135 11.7448V6.26383C39.4135 5.91201 39.1265 5.63426 38.784 5.625C38.6266 5.625 38.4784 5.68055 38.3673 5.78239L36.7286 7.21744C36.5897 7.3378 36.5156 7.51371 36.5156 7.69888V10.319C36.5156 10.4949 36.599 10.6708 36.7286 10.7912Z" fill="white"/>
<path d="M11.7055 6.76302L9.40593 12.5H8.20105L5.90153 6.76302H6.97254C7.08804 6.76302 7.18123 6.79058 7.2521 6.8457C7.32298 6.89821 7.37679 6.96646 7.41354 7.05046L8.52393 10.1217C8.57643 10.2556 8.62761 10.4026 8.67749 10.5627C8.72737 10.7202 8.77462 10.8856 8.81924 11.0589C8.85599 10.8856 8.89668 10.7202 8.9413 10.5627C8.98856 10.4026 9.03843 10.2556 9.09093 10.1217L10.1934 7.05046C10.2223 6.97696 10.2735 6.91133 10.347 6.85358C10.4231 6.7932 10.5163 6.76302 10.6266 6.76302H11.7055ZM14.7129 10.3068L14.1813 8.73572C14.1419 8.63597 14.0999 8.51916 14.0553 8.38528C14.0107 8.24878 13.966 8.10178 13.9214 7.94428C13.882 8.1044 13.84 8.25272 13.7954 8.38922C13.7508 8.52572 13.7088 8.64384 13.6694 8.74359L13.1418 10.3068H14.7129ZM16.8273 12.5H15.7957C15.6802 12.5 15.587 12.4737 15.5161 12.4212C15.4452 12.3661 15.3914 12.2966 15.3547 12.2126L15.0161 11.2124H12.8347L12.496 12.2126C12.4672 12.2861 12.4147 12.353 12.3385 12.4134C12.265 12.4711 12.1732 12.5 12.0629 12.5H11.0234L13.2442 6.76302H14.6066L16.8273 12.5ZM19.146 9.46023C19.3272 9.46023 19.4807 9.43791 19.6067 9.39329C19.7353 9.34604 19.8403 9.28172 19.9217 9.20035C20.0031 9.11897 20.0622 9.02447 20.0989 8.91685C20.1357 8.8066 20.154 8.68847 20.154 8.56247C20.154 8.31047 20.0714 8.11359 19.906 7.97184C19.7432 7.83009 19.4899 7.75921 19.146 7.75921H18.6105V9.46023H19.146ZM21.9732 12.5H20.7683C20.5452 12.5 20.385 12.416 20.2879 12.248L19.335 10.5824C19.2904 10.5115 19.2405 10.4604 19.1854 10.4289C19.1303 10.3947 19.0515 10.3777 18.9492 10.3777H18.6105V12.5H17.2796V6.76302H19.146C19.5608 6.76302 19.9139 6.80633 20.2052 6.89296C20.4992 6.97696 20.7381 7.09508 20.9219 7.24733C21.1082 7.39958 21.2434 7.5794 21.3274 7.78678C21.4114 7.99415 21.4534 8.2199 21.4534 8.46403C21.4534 8.65041 21.4285 8.82628 21.3786 8.99166C21.3287 9.15704 21.2552 9.3106 21.1581 9.45235C21.061 9.59148 20.9402 9.71617 20.7959 9.82642C20.6541 9.93667 20.49 10.0272 20.3037 10.0981C20.3903 10.1427 20.4717 10.1992 20.5478 10.2674C20.6239 10.333 20.6922 10.4118 20.7525 10.5037L21.9732 12.5Z" fill="white"/>
</g>
<defs>
<clipPath id="clip0_3321_675">
<rect width="45.0007" height="18" fill="white"/>
</clipPath>
</defs>
</svg>
