<svg width="14" height="14" viewBox="0 0 14 14" fill="none" xmlns="http://www.w3.org/2000/svg">
<g clip-path="url(#clip0_13_130)">
<path d="M13.9525 3.47197L12.2528 0.251208C12.1472 0.0509421 11.8992 -0.0257571 11.6989 0.0797897L6.99995 2.55675C6.79965 2.66232 6.72282 2.91022 6.82823 3.1106L7.26113 3.93332L5.80809 4.69716L5.37592 3.87584C5.27045 3.67549 5.02209 3.59822 4.82161 3.70409L2.55536 4.89973C0.146427 6.16952 -0.732319 9.19611 0.670634 11.5696L0.362634 11.8775C-0.116155 12.3561 -0.116292 13.1309 0.362634 13.6096C0.84022 14.0869 1.61727 14.087 2.09489 13.6096L2.41404 13.2906C3.8471 14.1056 5.63864 14.1527 7.16546 13.2795C9.15641 12.1405 9.97864 9.81944 9.37694 7.77782C9.16492 7.05843 9.49063 6.26601 10.1943 5.9028L13.7799 4.02686C13.9811 3.92156 14.0585 3.67273 13.9525 3.47197ZM1.51504 13.0294C1.35713 13.1871 1.10031 13.1871 0.942458 13.0294C0.784438 12.8714 0.784384 12.6157 0.942458 12.4577L1.15333 12.2469C1.32937 12.4535 1.52163 12.6438 1.72848 12.816L1.51504 13.0294ZM9.81537 5.17524C8.77871 5.70932 8.26342 6.90115 8.59012 8.00972C9.11127 9.77804 8.35795 11.6522 6.75817 12.5674C4.82169 13.6751 2.38429 12.9888 1.31302 11.0411C0.243688 9.09721 0.974587 6.66025 2.93792 5.62532L4.84121 4.62118L5.27311 5.44198C5.37857 5.64238 5.62652 5.71944 5.82687 5.61403L8.00595 4.46849C8.2063 4.36316 8.28357 4.11491 8.17805 3.91442L7.74493 3.09129L11.7187 0.996598L13.0349 3.49079L9.81537 5.17524Z" fill="#AAAAAA"/>
<path d="M7.21065 7.8307C6.52668 6.50516 4.88154 6.00059 3.52799 6.72618C2.18976 7.44357 1.65664 9.10393 2.3395 10.4274C3.02197 11.75 4.66563 12.2591 6.02216 11.5319C7.36036 10.8145 7.89348 9.15419 7.21065 7.8307ZM5.63461 10.8089C4.68067 11.3203 3.5397 10.9645 3.06843 10.0512C2.58972 9.12346 2.96972 7.95621 3.91551 7.4492C4.86294 6.94124 6.00717 7.28727 6.48169 8.20689V8.20687C6.9604 9.13464 6.58041 10.3019 5.63461 10.8089Z" fill="#AAAAAA"/>
<path d="M4.83464 1.96514C4.94019 2.16568 5.18822 2.24257 5.38857 2.1371C5.58903 2.03164 5.666 1.78357 5.56054 1.58312L4.95422 0.43077C4.84872 0.230313 4.60074 0.153313 4.40029 0.258805C4.19983 0.36427 4.12286 0.612333 4.22832 0.81279L4.83464 1.96514Z" fill="#AAAAAA"/>
<path d="M3.03242 3.00973L4.27057 3.27863C4.49146 3.32667 4.71023 3.18659 4.75838 2.96486C4.80646 2.74348 4.66599 2.52506 4.44464 2.47699L3.20649 2.20809C2.98509 2.15994 2.76675 2.30051 2.71868 2.52186C2.67064 2.74323 2.8111 2.96166 3.03242 3.00973Z" fill="#AAAAAA"/>
<path d="M6.4279 2.08734C6.63733 2.17317 6.87699 2.07299 6.96285 1.86323L7.4502 0.673096C7.53603 0.463479 7.4357 0.223947 7.22609 0.138115C7.01642 0.0522014 6.77697 0.152608 6.69114 0.362225L6.20379 1.55236C6.11796 1.76198 6.21829 2.00151 6.4279 2.08734Z" fill="#AAAAAA"/>
</g>
<defs>
<clipPath id="clip0_13_130">
<rect width="14" height="14" fill="white"/>
</clipPath>
</defs>
</svg>
