<svg width="25" height="25" viewBox="0 0 25 25" fill="none" xmlns="http://www.w3.org/2000/svg">
<g clip-path="url(#clip0_210_268)">
<path d="M9.34434 13.5107L12.6226 17.8367L15.4866 13.7696L12.2084 9.44351L9.34434 13.5107Z" fill="#CB2027"/>
<path d="M21.5854 5.68171L15.0767 3.93771C14.2487 3.71583 13.397 4.14456 13.0663 4.90904L15.87 4.90904C16.1264 4.90905 16.3814 4.94252 16.6279 5.00856C17.9066 5.35118 18.7996 6.51495 18.7996 7.83869L18.7996 18.9715C18.7996 19.2675 18.7557 19.5568 18.6714 19.8321C19.2443 19.6802 19.7231 19.235 19.8872 18.6226L22.7938 7.77478C23.0377 6.86454 22.4956 5.9256 21.5854 5.68171Z" fill="#EFB500"/>
<path d="M15.8701 6.08089L9.22943 6.08087C8.26015 6.08087 7.47161 6.86943 7.4716 7.83871L7.47162 18.9715C7.47161 19.9408 8.26017 20.7294 9.22945 20.7294L15.8701 20.7294C16.8393 20.7294 17.6279 19.9408 17.6279 18.9715L17.6279 7.83871C17.6279 6.86943 16.8393 6.08089 15.8701 6.08089ZM9.81536 9.98716C9.49176 9.98715 9.22943 9.72481 9.22944 9.40121L9.22945 8.42465C9.22946 8.10105 9.4918 7.83872 9.8154 7.83872C10.139 7.83873 10.4013 8.10107 10.4013 8.42468L10.4013 9.40123C10.4013 9.72479 10.139 9.98716 9.81536 9.98716ZM13.0466 16.2547C12.9395 16.4261 12.7517 16.5301 12.5497 16.5301C12.3477 16.5301 12.16 16.426 12.0529 16.2548L10.466 13.7157C10.3472 13.5257 10.3472 13.2846 10.466 13.0946L12.0529 10.5555C12.16 10.3842 12.3477 10.2801 12.5498 10.2801C12.7518 10.2801 12.9395 10.3842 13.0466 10.5554L14.6335 13.0945C14.7523 13.2845 14.7523 13.5256 14.6335 13.7156L13.0466 16.2547ZM15.87 18.3856C15.87 18.7092 15.6077 18.9715 15.2841 18.9715C14.9605 18.9715 14.6981 18.7092 14.6981 18.3856L14.6982 17.409C14.6982 17.0854 14.9605 16.8231 15.2841 16.8231C15.6077 16.8231 15.87 17.0854 15.87 17.409L15.87 18.3856Z" fill="#CB2027"/>
<rect x="8" y="6.99998" width="7" height="5" fill="#CB2027"/>
<rect width="7" height="5.00001" transform="matrix(1 -6.99151e-07 -7.17604e-07 1 10.0002 15)" fill="#CB2027"/>
</g>
<defs>
<clipPath id="clip0_210_268">
<rect width="20" height="20" fill="white" transform="translate(5.17639) rotate(15)"/>
</clipPath>
</defs>
</svg>
