<svg width="41" height="40" viewBox="0 0 41 40" fill="none" xmlns="http://www.w3.org/2000/svg">
<g id="gift-box 1">
<g id="Group">
<path id="Vector" d="M10.968 2.57034C10.1477 2.82034 9.5539 3.53909 9.28047 4.63284C9.1164 5.26565 9.17109 6.41408 9.39765 7.07033C9.7414 8.04689 10.5695 9.02345 11.6398 9.71095C12.3273 10.1563 12.9445 10.4688 14.2102 11.0156L15.2258 11.4531L15.2648 14.3438L15.3039 17.2266L19.1867 17.25L23.0773 17.2656L23.093 14.3672L23.1164 11.4688L23.9523 11.1719C27.3508 9.97658 29.4133 7.91408 29.4055 5.70315C29.3977 4.14846 28.6086 2.80471 27.5539 2.57034C25.6789 2.14846 22.2336 4.52346 20.3039 7.57814C20.1789 7.77345 19.8977 8.28127 19.6711 8.70314L19.2648 9.47658L18.8977 8.7422C17.9133 6.78127 16.4445 5.08596 14.5695 3.74221C13.1867 2.75784 11.8195 2.31253 10.968 2.57034ZM12.1477 3.87502C14.3977 4.53127 17.257 7.58595 18.2414 10.3828C18.3195 10.6172 18.3742 10.8203 18.3586 10.8438C18.3039 10.8906 17.2805 10.6641 16.2414 10.375C13.4055 9.59376 11.3586 8.31252 10.6867 6.89846C10.2023 5.87502 10.4289 4.24221 11.1164 3.86721C11.382 3.71877 11.632 3.72659 12.1477 3.87502ZM27.4602 3.88284C27.9367 4.16409 28.2492 5.26565 28.093 6.1094C27.7883 7.76564 26.218 9.06251 23.3117 10.0625C22.3039 10.4063 20.2883 10.9063 20.2102 10.8359C20.1477 10.7656 20.4602 9.92189 20.8352 9.1797C21.4055 8.03908 21.968 7.27346 23.0383 6.20315C24.9133 4.32815 26.6555 3.41409 27.4602 3.88284Z" fill="#141414"/>
<path id="Vector_2" d="M6.36719 11.5938C5.99219 11.7266 5.52344 12.1484 5.32031 12.5234C5.15625 12.8281 5.14844 12.9453 5.14844 14.3359V15.8203L5.39062 16.25C5.6875 16.7813 6.23438 17.1406 6.84375 17.2109C7.07031 17.2422 8.78125 17.2656 10.6406 17.2656H14.0156V14.375V11.4844L10.3281 11.4922C7.63281 11.4922 6.5625 11.5234 6.36719 11.5938Z" fill="#141414"/>
<path id="Vector_3" d="M24.328 14.3828V17.2734L28.1405 17.25C31.8046 17.2266 31.9608 17.2188 32.2968 17.0625C32.6874 16.8828 33.1171 16.4375 33.2811 16.0469C33.3593 15.8594 33.3905 15.3984 33.3905 14.3594C33.3905 13.0234 33.3749 12.9063 33.203 12.5391C32.9843 12.0703 32.7655 11.8594 32.2968 11.6484C31.9608 11.4922 31.8046 11.4844 28.1405 11.4844H24.328V14.3828Z" fill="#141414"/>
<path id="Vector_4" d="M7.375 27.7422C7.375 34.6016 7.39844 37.0078 7.46875 37.1328C7.65625 37.5 7.64062 37.4922 10.9141 37.5H14.0156V28.0078V18.5157H10.6953H7.375V27.7422Z" fill="#141414"/>
<path id="Vector_5" d="M15.2657 28.0078V37.5H19.172H23.0782V36.6016C23.0782 35.7031 23.0782 35.7031 22.8126 35.3359C21.047 32.8438 21.0079 29.2969 22.7189 26.6406L23.0782 26.086V22.3047V18.5157H19.172H15.2657V28.0078Z" fill="#141414"/>
<path id="Vector_6" d="M24.328 21.6406C24.328 23.3594 24.3436 24.7656 24.3593 24.7656C24.3749 24.7656 24.5936 24.625 24.8436 24.4609C26.6796 23.2422 28.7968 22.8203 30.953 23.25L31.203 23.2969V20.9063V18.5156H27.7655H24.328V21.6406Z" fill="#141414"/>
<path id="Vector_7" d="M27.9918 24.4456C25.6871 24.9534 23.7574 26.6956 22.9996 28.969C22.4918 30.4846 22.609 32.2034 23.3121 33.6721C24.2496 35.6018 25.7027 36.8049 27.6715 37.2737C28.5152 37.4768 29.8121 37.4924 30.6481 37.3127C32.2574 36.9612 33.734 36.0237 34.609 34.7971C36.0309 32.8128 36.2496 30.1643 35.1715 28.0081C34.2887 26.2503 32.7184 24.9925 30.7731 24.4925C30.0074 24.2893 28.7809 24.2737 27.9918 24.4456ZM29.7027 27.6018C29.859 27.7659 29.8746 27.8753 29.8902 29.0237L29.9137 30.2737L31.1793 30.2971C32.4371 30.3128 32.4449 30.3206 32.6012 30.5237C32.7809 30.7503 32.8121 31.0706 32.6637 31.2581C32.4606 31.5159 32.234 31.5628 31.0543 31.5628H29.8746V32.7815C29.8746 33.4456 29.8434 34.0549 29.7965 34.1331C29.6715 34.3753 29.2965 34.4846 29.0465 34.3596C28.6793 34.1878 28.6246 33.9768 28.6246 32.719V31.5706L27.3746 31.5471C26.2496 31.5237 26.1168 31.5081 25.9762 31.3674C25.734 31.1174 25.734 30.7034 25.9684 30.469C26.109 30.3284 26.2262 30.3128 27.3746 30.3128H28.6246V29.1409C28.6246 27.6487 28.7027 27.4456 29.2965 27.4299C29.4527 27.4221 29.5934 27.4846 29.7027 27.6018Z" fill="#23CC8C"/>
</g>
</g>
</svg>
