<svg width="1150" height="720" viewBox="0 0 1150 720" fill="none" preserveAspectRatio="none" xmlns="http://www.w3.org/2000/svg">
<g clip-path="url(#clip0)">
<rect width="1150" height="720" fill="white"/>
<path d="M0 0H1150V720H0V0Z" fill="#57A455" stroke="white"/>
<path d="M575 20H50V700H1100V20H575V700V20Z" fill="#57A455"/>
<path d="M575 20H50V700H1100V20H575ZM575 20V700V20Z" stroke="#99C297" stroke-width="2"/>
<path d="M666.5 360C666.5 335.733 656.86 312.459 639.7 295.3C622.541 278.14 599.267 268.5 575 268.5C550.733 268.5 527.459 278.14 510.3 295.3C493.14 312.459 483.5 335.733 483.5 360C483.5 384.267 493.14 407.541 510.3 424.7C527.459 441.86 550.733 451.5 575 451.5C599.267 451.5 622.541 441.86 639.7 424.7C656.86 407.541 666.5 384.267 666.5 360Z" stroke="#99C297" stroke-width="2"/>
<path d="M577 360C577 359.47 576.789 358.961 576.414 358.586C576.039 358.211 575.53 358 575 358C574.47 358 573.961 358.211 573.586 358.586C573.211 358.961 573 359.47 573 360C573 360.53 573.211 361.039 573.586 361.414C573.961 361.789 574.47 362 575 362C575.53 362 576.039 361.789 576.414 361.414C576.789 361.039 577 360.53 577 360Z" fill="#99C297" stroke="#99C297"/>
<path d="M162 360C162 359.47 161.789 358.961 161.414 358.586C161.039 358.211 160.53 358 160 358C159.47 358 158.961 358.211 158.586 358.586C158.211 358.961 158 359.47 158 360C158 360.53 158.211 361.039 158.586 361.414C158.961 361.789 159.47 362 160 362C160.53 362 161.039 361.789 161.414 361.414C161.789 361.039 162 360.53 162 360Z" fill="#99C297" stroke="#99C297"/>
<path d="M992 360C992 359.47 991.789 358.961 991.414 358.586C991.039 358.211 990.53 358 990 358C989.47 358 988.961 358.211 988.586 358.586C988.211 358.961 988 359.47 988 360C988 360.53 988.211 361.039 988.586 361.414C988.961 361.789 989.47 362 990 362C990.53 362 991.039 361.789 991.414 361.414C991.789 361.039 992 360.53 992 360Z" fill="#99C297" stroke="#99C297"/>
<path d="M50 324.4H40V396.6H50V324.4Z" stroke="#99C297" stroke-width="2"/>
<path d="M1100 324.4H1110V396.6H1100V324.4Z" stroke="#99C297" stroke-width="2"/>
<path d="M50 269.4H105V451.6H50V269.4Z" stroke="#99C297" stroke-width="2"/>
<path d="M1100 269.4H1045V451.6H1100V269.4Z" stroke="#99C297" stroke-width="2"/>
<path d="M50 159.4H215V561.6H50V159.4Z" stroke="#99C297" stroke-width="2"/>
<path d="M1100 159.4H935V561.6H1100V159.4Z" stroke="#99C297" stroke-width="2"/>
<path d="M215 286.88C226.335 295.406 235.534 306.45 241.868 319.141C248.203 331.832 251.5 345.821 251.5 360.005C251.5 374.189 248.203 388.178 241.868 400.869C235.534 413.56 226.335 424.604 215 433.13V286.88Z" fill="#57A455" stroke="#99C297" stroke-width="2"/>
<path d="M935 286.88C923.665 295.406 914.466 306.45 908.132 319.141C901.797 331.832 898.5 345.821 898.5 360.005C898.5 374.189 901.797 388.178 908.132 400.869C914.466 413.56 923.665 424.604 935 433.13V286.88Z" fill="#57A455" stroke="#99C297" stroke-width="2"/>
<path d="M50 30C52.6522 30 55.1957 28.9464 57.0711 27.0711C58.9464 25.1957 60 22.6522 60 20H50V30Z" stroke="#99C297" stroke-width="2"/>
<path d="M60 700C60 697.348 58.9464 694.804 57.0711 692.929C55.1957 691.054 52.6522 690 50 690V700H60Z" stroke="#99C297" stroke-width="2"/>
<path d="M1100 690C1097.35 690 1094.8 691.054 1092.93 692.929C1091.05 694.804 1090 697.348 1090 700H1100V690Z" stroke="#99C297" stroke-width="2"/>
<path d="M1090 20C1090 22.6522 1091.05 25.1957 1092.93 27.0711C1094.8 28.9464 1097.35 30 1100 30V20H1090Z" stroke="#99C297" stroke-width="2"/>
</g>
<defs>
<clipPath id="clip0">
<rect width="1150" height="720" fill="white"/>
</clipPath>
</defs>
</svg>
