<svg width="720" height="1150" viewBox="0 0 720 1150" preserveAspectRatio="none" fill="none" xmlns="http://www.w3.org/2000/svg">
<g clip-path="url(#clip0)">
<rect width="1150" height="720" fill="white" transform="translate(720) rotate(90)"/>
<path d="M720 0L720 1150L-5.02681e-05 1150L0 -3.14722e-05L720 0Z" fill="#57A455" stroke="white"/>
<path d="M700 575L700 50L20 50L20 1100L700 1100L700 575L20 575L700 575Z" fill="#57A455"/>
<path d="M700 575L700 50L20 50L20 1100L700 1100L700 575ZM700 575L20 575L700 575Z" stroke="#99C297" stroke-width="2"/>
<path d="M360 666.5C384.267 666.5 407.541 656.86 424.7 639.7C441.86 622.541 451.5 599.267 451.5 575C451.5 550.733 441.86 527.459 424.7 510.3C407.541 493.14 384.267 483.5 360 483.5C335.733 483.5 312.459 493.14 295.3 510.3C278.14 527.459 268.5 550.733 268.5 575C268.5 599.267 278.14 622.541 295.3 639.7C312.459 656.86 335.733 666.5 360 666.5Z" stroke="#99C297" stroke-width="2"/>
<path d="M360 577C360.53 577 361.039 576.789 361.414 576.414C361.789 576.039 362 575.53 362 575C362 574.47 361.789 573.961 361.414 573.586C361.039 573.211 360.53 573 360 573C359.47 573 358.961 573.211 358.586 573.586C358.211 573.961 358 574.47 358 575C358 575.53 358.211 576.039 358.586 576.414C358.961 576.789 359.47 577 360 577Z" fill="#99C297" stroke="#99C297"/>
<path d="M360 162C360.53 162 361.039 161.789 361.414 161.414C361.789 161.039 362 160.53 362 160C362 159.47 361.789 158.961 361.414 158.586C361.039 158.211 360.53 158 360 158C359.47 158 358.961 158.211 358.586 158.586C358.211 158.961 358 159.47 358 160C358 160.53 358.211 161.039 358.586 161.414C358.961 161.789 359.47 162 360 162Z" fill="#99C297" stroke="#99C297"/>
<path d="M360 992C360.53 992 361.039 991.789 361.414 991.414C361.789 991.039 362 990.53 362 990C362 989.47 361.789 988.961 361.414 988.586C361.039 988.211 360.53 988 360 988C359.47 988 358.961 988.211 358.586 988.586C358.211 988.961 358 989.47 358 990C358 990.53 358.211 991.039 358.586 991.414C358.961 991.789 359.47 992 360 992Z" fill="#99C297" stroke="#99C297"/>
<path d="M395.6 50L395.6 40L323.4 40L323.4 50L395.6 50Z" stroke="#99C297" stroke-width="2"/>
<path d="M395.6 1100L395.6 1110L323.4 1110L323.4 1100L395.6 1100Z" stroke="#99C297" stroke-width="2"/>
<path d="M450.6 50L450.6 105L268.4 105L268.4 50L450.6 50Z" stroke="#99C297" stroke-width="2"/>
<path d="M450.6 1100L450.6 1045L268.4 1045L268.4 1100L450.6 1100Z" stroke="#99C297" stroke-width="2"/>
<path d="M560.6 50L560.6 215L158.4 215L158.4 50L560.6 50Z" stroke="#99C297" stroke-width="2"/>
<path d="M560.6 1100L560.6 935L158.4 935L158.4 1100L560.6 1100Z" stroke="#99C297" stroke-width="2"/>
<path d="M433.12 215C424.594 226.335 413.55 235.534 400.859 241.868C388.168 248.203 374.179 251.5 359.995 251.5C345.811 251.5 331.821 248.203 319.131 241.868C306.44 235.534 295.396 226.335 286.87 215L433.12 215Z" fill="#57A455" stroke="#99C297" stroke-width="2"/>
<path d="M433.12 935C424.594 923.665 413.55 914.466 400.859 908.132C388.168 901.797 374.179 898.5 359.995 898.5C345.811 898.5 331.821 901.797 319.131 908.132C306.44 914.466 295.396 923.665 286.87 935L433.12 935Z" fill="#57A455" stroke="#99C297" stroke-width="2"/>
<path d="M690 50C690 52.6522 691.054 55.1957 692.929 57.0711C694.804 58.9464 697.348 60 700 60L700 50L690 50Z" stroke="#99C297" stroke-width="2"/>
<path d="M20 60C22.6522 60 25.1957 58.9464 27.071 57.0711C28.9464 55.1957 30 52.6522 30 50L20 50L20 60Z" stroke="#99C297" stroke-width="2"/>
<path d="M30 1100C30 1097.35 28.9464 1094.8 27.071 1092.93C25.1957 1091.05 22.6522 1090 20 1090L20 1100L30 1100Z" stroke="#99C297" stroke-width="2"/>
<path d="M700 1090C697.348 1090 694.804 1091.05 692.929 1092.93C691.054 1094.8 690 1097.35 690 1100L700 1100L700 1090Z" stroke="#99C297" stroke-width="2"/>
</g>
<defs>
<clipPath id="clip0">
<rect width="1150" height="720" fill="white" transform="translate(720) rotate(90)"/>
</clipPath>
</defs>
</svg>
