<svg xmlns="http://www.w3.org/2000/svg" xmlns:xlink="http://www.w3.org/1999/xlink" style="position:absolute;left: -100%;" height="0" width="0"><defs><clipPath id="clip0_130_12"><path d="M0 0h20v20H0z"/></clipPath><clipPath id="fl-var-icon--"><path fill="#fff" d="M0 0h20v14H0z"/></clipPath></defs><symbol id="icon-club-none" viewBox="0 0 14 16"><path fill-rule="evenodd" clip-rule="evenodd" d="M0 2l7-2 7 2v6.02C14 12.69 8.69 16 7 16c-1.69 0-7-3.31-7-7.98V2zm1 .75L7 1l6 1.75v5.268C13 12.104 8.449 15 7 15c-1.449 0-6-2.896-6-6.982V2.75z" fill="#7C7E80"/><path fill-rule="evenodd" clip-rule="evenodd" d="M7.987 8l2.5 2.578-.987 1.018L7 9.017l-2.5 2.579-.987-1.018L6.013 8l-2.5-2.578.987-1.018L7 6.983l2.5-2.579.987 1.018L7.987 8z" fill="#7C7E80"/></symbol><symbol id="icon-club-unknown" viewBox="0 0 14 16"><path fill-rule="evenodd" clip-rule="evenodd" d="M0 2l7-2 7 2v6.02C14 12.69 8.69 16 7 16c-1.69 0-7-3.31-7-7.98V2zm1 .75L7 1l6 1.75v5.268C13 12.104 8.449 15 7 15c-1.449 0-6-2.896-6-6.982V2.75z" fill="#7C7E80"/><path fill-rule="evenodd" clip-rule="evenodd" d="M6 10h2v2H6v-2zM10 6.5C10 8.64 8 9 8 9H6c0-.55.45-1 1-1h.5c.28 0 .5-.22.5-.5v-1c0-.28-.22-.5-.5-.5h-1c-.28 0-.5.22-.5.5V7H4c0-1.5 1.5-3 3-3s3 1 3 2.5z" fill="#7C7E80"/></symbol><symbol id="icon-comment" viewBox="0 0 16 16"><path fill-rule="evenodd" d="M14 1H2c-.55 0-1 .45-1 1v8c0 .55.45 1 1 1h2v3.5L7.5 11H14c.55 0 1-.45 1-1V2c0-.55-.45-1-1-1zm0 9H7l-2 2v-2H2V2h12v8z"/></symbol><symbol id="icon-home" viewBox="0 0 58.365 58.365"><path d="M57.863 26.632l-8.681-8.061V5.365h-10v3.921L29.182 0 .502 26.632a1.001 1.001 0 001.362 1.466l3.319-3.082v33.349h48v-33.35l3.319 3.082a.995.995 0 00.681.267 1 1 0 00.68-1.732zM41.182 7.365h6v9.349l-6-5.571V7.365zm-18 49V35.302c0-.517.42-.937.937-.937h10.126c.517 0 .937.42.937.937v21.063h-12zm28 0h-14V35.302a2.94 2.94 0 00-2.937-2.937H24.119a2.94 2.94 0 00-2.937 2.937v21.063h-14V23.158l22-20.429 14.28 13.26 5.72 5.311 2 1.857v33.208z"/></symbol><symbol id="icon-info" viewBox="0 0 14 16"><path fill-rule="evenodd" d="M6.3 5.69a.942.942 0 01-.28-.7c0-.28.09-.52.28-.7.19-.18.42-.28.7-.28.28 0 .52.09.7.28.18.19.28.42.28.7 0 .28-.09.52-.28.7a1 1 0 01-.7.3c-.28 0-.52-.11-.7-.3zM8 7.99c-.02-.25-.11-.48-.31-.69-.2-.19-.42-.3-.69-.31H6c-.27.02-.48.13-.69.31-.2.2-.3.44-.31.69h1v3c.02.27.11.5.31.69.2.2.42.31.69.31h1c.27 0 .48-.11.69-.31.2-.19.3-.42.31-.69H8V7.98v.01zM7 2.3c-3.14 0-5.7 2.54-5.7 5.68 0 3.14 2.56 5.7 5.7 5.7s5.7-2.55 5.7-5.7c0-3.15-2.56-5.69-5.7-5.69v.01zM7 .98c3.86 0 7 3.14 7 7s-3.14 7-7 7-7-3.12-7-7 3.14-7 7-7z"/></symbol><symbol id="icon-issue-opened" viewBox="0 0 14 16"><path fill-rule="evenodd" d="M7 2.3c3.14 0 5.7 2.56 5.7 5.7s-2.56 5.7-5.7 5.7A5.71 5.71 0 011.3 8c0-3.14 2.56-5.7 5.7-5.7zM7 1C3.14 1 0 4.14 0 8s3.14 7 7 7 7-3.14 7-7-3.14-7-7-7zm1 3H6v5h2V4zm0 6H6v2h2v-2z"/></symbol><symbol id="icon-light-bulb" viewBox="0 0 12 16"><path fill-rule="evenodd" d="M6.5 0C3.48 0 1 2.19 1 5c0 .92.55 2.25 1 3 1.34 2.25 1.78 2.78 2 4v1h5v-1c.22-1.22.66-1.75 2-4 .45-.75 1-2.08 1-3 0-2.81-2.48-5-5.5-5zm3.64 7.48c-.25.44-.47.8-.67 1.11-.86 1.41-1.25 2.06-1.45 3.23-.02.05-.02.11-.02.17H5c0-.06 0-.13-.02-.17-.2-1.17-.59-1.83-1.45-3.23-.2-.31-.42-.67-.67-1.11C2.44 6.78 2 5.65 2 5c0-2.2 2.02-4 4.5-4 1.22 0 2.36.42 3.22 1.19C10.55 2.94 11 3.94 11 5c0 .66-.44 1.78-.86 2.48zM4 14h5c-.23 1.14-1.3 2-2.5 2s-2.27-.86-2.5-2z"/></symbol><symbol id="icon-pencil" viewBox="0 0 14 16"><path fill-rule="evenodd" d="M0 12v3h3l8-8-3-3-8 8zm3 2H1v-2h1v1h1v1zm10.3-9.3L12 6 9 3l1.3-1.3a.996.996 0 011.41 0l1.59 1.59c.39.39.39 1.02 0 1.41z"/></symbol><symbol id="icon-plus-18" viewBox="0 0 328.863 328.863"><path d="M104.032 220.434V131.15h-20.64v-22.88h49.121v112.164h-28.481zM239.552 137.23c0 9.76-5.28 18.4-14.08 23.201 12.319 5.119 20 15.84 20 28.32 0 20.16-17.921 32.961-45.921 32.961-28.001 0-45.921-12.641-45.921-32.48 0-12.801 8.32-23.682 21.28-28.801-9.44-5.281-15.52-14.24-15.52-24 0-17.922 15.681-29.281 40.001-29.281 24.64 0 40.161 11.68 40.161 30.08zm-59.042 49.122c0 9.441 6.721 14.721 19.041 14.721s19.2-5.119 19.2-14.721c0-9.279-6.88-14.561-19.2-14.561-12.321 0-19.041 5.281-19.041 14.561zm2.881-47.522c0 8.002 5.76 12.48 16.16 12.48s16.16-4.479 16.16-12.48c0-8.318-5.76-12.959-16.16-12.959-10.401 0-16.16 4.641-16.16 12.959z"/><path d="M292.864 120.932c4.735 13.975 7.137 28.592 7.137 43.5 0 74.752-60.816 135.568-135.569 135.568s-135.57-60.816-135.57-135.568c0-74.754 60.816-135.568 135.569-135.568 14.91 0 29.527 2.4 43.5 7.137V5.832C193.817 1.963 179.24 0 164.432 0 73.765 0 .001 73.764.001 164.432s73.764 164.432 164.431 164.432 164.43-73.764 164.43-164.432c0-14.807-1.962-29.385-5.831-43.5h-30.167z"/><path d="M284.659 44.111V12.582h-22.672v31.529h-31.34v22.67h31.34v31.528h22.672V66.781h31.527v-22.67z"/></symbol><symbol id="icon-shirt" viewBox="0 0 51 41"><path d="M37.467.5H13.533a1 1 0 00-.516.144L1.345 7.683a1 1 0 00-.347 1.361l4.103 7.01a1 1 0 001.361.362l4.785-2.748a1 1 0 011.498.867V39.5a1 1 0 001 1h23.51a1 1 0 001-1V14.535a1 1 0 011.498-.867l4.785 2.748a1 1 0 001.361-.362l4.102-7.01a1 1 0 00-.346-1.361L37.983.643A1 1 0 0037.467.5z" stroke="#474747"/></symbol><symbol id="icon-subs-alt" viewBox="0 0 20 20"><g clip-path="url(#clip0_130_12)"><path d="M19.678 12.041a1.083 1.083 0 00-.774-.322h-5.468c-.603 0-1.092.489-1.092 1.092v.927c0 .29.113.571.32.778.207.207.48.328.772.328h1.446c-1.282 1.25-3.046 2.036-4.894 2.036a6.89 6.89 0 01-6.493-4.608 1.566 1.566 0 00-1.991-.961c-.394.138-.71.42-.892.797-.181.376-.205.8-.067 1.193a10.007 10.007 0 009.437 6.697 9.915 9.915 0 006.893-2.75v1.025c0 .603.503 1.102 1.107 1.102h.926A1.1 1.1 0 0020 18.273v-5.458c0-.292-.114-.567-.322-.774z" fill="#A60F0F"/><path d="M19.456 6.698A10.008 10.008 0 0010.02.002a9.917 9.917 0 00-6.894 2.75V1.727c0-.603-.502-1.102-1.105-1.102h-.927C.49.625 0 1.124 0 1.727v5.458c0 .292.115.564.323.771.207.209.482.323.774.323l-.003.002h5.472a1.09 1.09 0 001.09-1.092v-.927c0-.603-.487-1.106-1.09-1.106H5.119c1.283-1.25 3.046-2.036 4.894-2.036 2.92 0 5.53 1.854 6.494 4.608a1.565 1.565 0 001.99.96c.395-.137.712-.42.892-.796.181-.376.205-.8.067-1.194z" fill="#18993C"/></g></symbol><symbol id="icon-tag" viewBox="0 0 15 16"><path fill-rule="evenodd" d="M7.73 1.73C7.26 1.26 6.62 1 5.96 1H3.5C2.13 1 1 2.13 1 3.5v2.47c0 .66.27 1.3.73 1.77l6.06 6.06c.39.39 1.02.39 1.41 0l4.59-4.59a.996.996 0 000-1.41L7.73 1.73zM2.38 7.09c-.31-.3-.47-.7-.47-1.13V3.5c0-.88.72-1.59 1.59-1.59h2.47c.42 0 .83.16 1.13.47l6.14 6.13-4.73 4.73-6.13-6.15zM3.01 3h2v2H3V3h.01z"/></symbol><symbol id="icon-var" viewBox="0 0 20 14"><g fill="currentColor" clip-path="url(#fl-var-icon--)"><path d="M20 11.369V0H0v11.369h9.375v1.387H6.25V14h7.5v-1.244h-3.125v-1.387H20zM1.25.978h17.5v9.413H1.25V.978z"/><path d="M3.879 3.133L5.17 7.174h.05l1.294-4.041h1.252L5.924 8.452H4.468l-1.844-5.32h1.255zM8.62 8.452H7.41l1.844-5.32h1.456l1.842 5.32h-1.21l-1.34-4.104h-.041L8.62 8.452zm-.076-2.09h2.86v.877h-2.86v-.878zm4.651 2.09v-5.32h2.108c.403 0 .748.072 1.033.216.287.142.505.344.655.605.151.26.227.566.227.917 0 .353-.077.657-.23.912a1.487 1.487 0 01-.665.582c-.289.135-.638.202-1.049.202h-1.411v-.904h1.229c.215 0 .394-.029.537-.088a.638.638 0 00.318-.265.834.834 0 00.107-.439.868.868 0 00-.107-.447.655.655 0 00-.32-.275 1.322 1.322 0 00-.54-.096h-.762v4.4h-1.13zm2.885-2.42l1.328 2.42h-1.247l-1.3-2.42h1.22z"/></g></symbol><symbol id="icon-x" viewBox="0 0 12 16"><path fill-rule="evenodd" d="M7.48 8l3.75 3.75-1.48 1.48L6 9.48l-3.75 3.75-1.48-1.48L4.52 8 .77 4.25l1.48-1.48L6 6.52l3.75-3.75 1.48 1.48L7.48 8z"/></symbol></svg>