<svg xmlns="http://www.w3.org/2000/svg" xmlns:xlink="http://www.w3.org/1999/xlink" style="position:absolute;left: -100%;" height="0" width="0"><defs><clipPath id="a"><path fill="#fff" d="M0 0h20v14H0z"/></clipPath></defs><symbol id="icon-fl-pro-calendar" viewBox="0 0 14 16"><path fill-rule="evenodd" d="M13 2h-1v1.5c0 .28-.22.5-.5.5h-2c-.28 0-.5-.22-.5-.5V2H6v1.5c0 .28-.22.5-.5.5h-2c-.28 0-.5-.22-.5-.5V2H2c-.55 0-1 .45-1 1v11c0 .55.45 1 1 1h11c.55 0 1-.45 1-1V3c0-.55-.45-1-1-1zm0 12H2V5h11v9zM5 3H4V1h1v2zm6 0h-1V1h1v2zM6 7H5V6h1v1zm2 0H7V6h1v1zm2 0H9V6h1v1zm2 0h-1V6h1v1zM4 9H3V8h1v1zm2 0H5V8h1v1zm2 0H7V8h1v1zm2 0H9V8h1v1zm2 0h-1V8h1v1zm-8 2H3v-1h1v1zm2 0H5v-1h1v1zm2 0H7v-1h1v1zm2 0H9v-1h1v1zm2 0h-1v-1h1v1zm-8 2H3v-1h1v1zm2 0H5v-1h1v1zm2 0H7v-1h1v1zm2 0H9v-1h1v1z"/></symbol><symbol id="icon-fl-pro-code" viewBox="0 0 14 16"><path fill-rule="evenodd" d="M9.5 3L8 4.5 11.5 8 8 11.5 9.5 13 14 8 9.5 3zm-5 0L0 8l4.5 5L6 11.5 2.5 8 6 4.5 4.5 3z"/></symbol><symbol id="icon-fl-pro-database" viewBox="0 0 24 24"><ellipse cx="12" cy="5" rx="9" ry="3"/><path d="M21 12c0 1.66-4 3-9 3s-9-1.34-9-3"/><path d="M3 5v14c0 1.66 4 3 9 3s9-1.34 9-3V5"/></symbol><symbol id="icon-fl-pro-file-text" viewBox="0 0 24 24"><path d="M14 2H6a2 2 0 00-2 2v16a2 2 0 002 2h12a2 2 0 002-2V8z"/><path d="M14 2v6h6M16 13H8M16 17H8M10 9H8"/></symbol><symbol id="icon-fl-pro-flag" viewBox="0 0 24 24"><path d="M4 15s1-1 4-1 5 2 8 2 4-1 4-1V3s-1 1-4 1-5-2-8-2-4 1-4 1zM4 22v-7"/></symbol><symbol id="icon-fl-pro-mouse" viewBox="0 0 64 64"><path d="M35 15.597h-2.17V1.403a1 1 0 10-2 0v14.194H29c-6.628 0-12 5.373-12 12v24c0 6.628 5.372 12 12 12h6c6.627 0 12-5.372 12-12v-24c0-6.627-5.373-12-12-12zm0 2c5.514 0 10 4.486 10 10v7.75H32.83v-1.654h1.006a2 2 0 002-2v-8a2 2 0 00-2-2H32.83v-4.096H35zm-1.164 6.096v8h-4v-8h4zM29 17.597h1.83v4.096h-.994a2 2 0 00-2 2v8a2 2 0 002 2h.994v1.655H19v-7.75c0-5.515 4.486-10 10-10zm6 44h-6c-5.514 0-10-4.486-10-10v-14.25h26v14.25c0 5.514-4.486 10-10 10z"/></symbol><symbol id="icon-fl-pro-pause-circle" viewBox="0 0 24 24"><circle cx="12" cy="12" r="10"/><path d="M10 15V9M14 15V9"/></symbol><symbol id="icon-fl-pro-play-circle" viewBox="0 0 24 24"><circle cx="12" cy="12" r="10"/><path d="M10 8l6 4-6 4V8z"/></symbol><symbol id="icon-fl-pro-radio-tower" viewBox="0 0 16 16"><path fill-rule="evenodd" d="M4.79 6.11c.25-.25.25-.67 0-.92-.32-.33-.48-.76-.48-1.19 0-.43.16-.86.48-1.19.25-.26.25-.67 0-.92a.613.613 0 00-.45-.19c-.16 0-.33.06-.45.19-.57.58-.85 1.35-.85 2.11 0 .76.29 1.53.85 2.11.25.25.66.25.9 0zM2.33.52a.651.651 0 00-.92 0C.48 1.48.01 2.74.01 3.99c0 1.26.47 2.52 1.4 3.48.25.26.66.26.91 0s.25-.68 0-.94c-.68-.7-1.02-1.62-1.02-2.54 0-.92.34-1.84 1.02-2.54a.66.66 0 00.01-.93zm5.69 5.1A1.62 1.62 0 106.4 4c-.01.89.72 1.62 1.62 1.62zM14.59.53a.628.628 0 00-.91 0c-.25.26-.25.68 0 .94.68.7 1.02 1.62 1.02 2.54 0 .92-.34 1.83-1.02 2.54-.25.26-.25.68 0 .94a.651.651 0 00.92 0c.93-.96 1.4-2.22 1.4-3.48A5.048 5.048 0 0014.59.53zM8.02 6.92c-.41 0-.83-.1-1.2-.3l-3.15 8.37h1.49l.86-1h4l.84 1h1.49L9.21 6.62c-.38.2-.78.3-1.19.3zm-.01.48L9.02 11h-2l.99-3.6zm-1.99 5.59l1-1h2l1 1h-4zm5.19-11.1c-.25.25-.25.67 0 .92.32.33.48.76.48 1.19 0 .43-.16.86-.48 1.19-.25.26-.25.67 0 .92a.63.63 0 00.9 0c.57-.58.85-1.35.85-2.11 0-.76-.28-1.53-.85-2.11a.634.634 0 00-.9 0z"/></symbol><symbol id="icon-fl-pro-refresh-ccw" viewBox="0 0 24 24"><path d="M1 4v6h6M23 20v-6h-6"/><path d="M20.49 9A9 9 0 005.64 5.64L1 10m22 4l-4.64 4.36A9 9 0 013.51 15"/></symbol><symbol id="icon-fl-pro-repeat" viewBox="0 0 24 24"><path d="M17 1l4 4-4 4"/><path d="M3 11V9a4 4 0 014-4h14M7 23l-4-4 4-4"/><path d="M21 13v2a4 4 0 01-4 4H3"/></symbol><symbol id="icon-fl-pro-star" viewBox="0 0 24 24"><path d="M12 2l3.09 6.26L22 9.27l-5 4.87 1.18 6.88L12 17.77l-6.18 3.25L7 14.14 2 9.27l6.91-1.01L12 2z"/></symbol><symbol id="icon-fl-pro-trashcan" viewBox="0 0 12 16"><path fill-rule="evenodd" d="M11 2H9c0-.55-.45-1-1-1H5c-.55 0-1 .45-1 1H2c-.55 0-1 .45-1 1v1c0 .55.45 1 1 1v9c0 .55.45 1 1 1h7c.55 0 1-.45 1-1V5c.55 0 1-.45 1-1V3c0-.55-.45-1-1-1zm-1 12H3V5h1v8h1V5h1v8h1V5h1v8h1V5h1v9zm1-10H2V3h9v1z"/></symbol><symbol id="icon-fl-pro-user" viewBox="0 0 24 24"><path d="M20 21v-2a4 4 0 00-4-4H8a4 4 0 00-4 4v2"/><circle cx="12" cy="7" r="4"/></symbol><symbol id="icon-fl-pro-var" viewBox="0 0 20 14"><g fill="currentColor" clip-path="url(#a)"><path d="M20 11.369V0H0v11.369h9.375v1.387H6.25V14h7.5v-1.244h-3.125v-1.387H20zM1.25.978h17.5v9.413H1.25V.978z"/><path d="M3.879 3.133L5.17 7.174h.05l1.294-4.041h1.252L5.924 8.452H4.468l-1.844-5.32h1.255zM8.62 8.452H7.41l1.844-5.32h1.456l1.842 5.32h-1.21l-1.34-4.104h-.041L8.62 8.452zm-.076-2.09h2.86v.877h-2.86v-.878zm4.651 2.09v-5.32h2.108c.403 0 .748.072 1.033.216.287.142.505.344.655.605.151.26.227.566.227.917 0 .353-.077.657-.23.912a1.487 1.487 0 01-.665.582c-.289.135-.638.202-1.049.202h-1.411v-.904h1.229c.215 0 .394-.029.537-.088a.638.638 0 00.318-.265.834.834 0 00.107-.439.868.868 0 00-.107-.447.655.655 0 00-.32-.275 1.322 1.322 0 00-.54-.096h-.762v4.4h-1.13zm2.885-2.42l1.328 2.42h-1.247l-1.3-2.42h1.22z"/></g></symbol><symbol id="icon-fl-pro-wizard" viewBox="0 0 512 512"><path d="M454.32 219.727l-38.766-51.947 20.815-61.385a16.735 16.735 0 00-21.223-21.223l-61.384 20.815-51.949-38.766a16.736 16.736 0 00-26.741 13.626l.829 64.815-52.923 37.426a16.736 16.736 0 004.694 29.645l43.843 13.629-257.072 257.07c-6.535 6.534-6.535 17.131 0 23.666s17.131 6.535 23.666 0l257.072-257.073 13.629 43.844a16.735 16.735 0 0029.645 4.695l37.426-52.923 64.815.828.214.001a16.736 16.736 0 0013.41-26.743zm-86.81-7.664a16.703 16.703 0 00-13.876 7.071l-22.929 32.421c-12.767-41.075-12.097-40.949-15.933-44.786-4.112-4.112-4.736-3.485-44.786-15.934l32.423-22.928a16.742 16.742 0 007.071-13.876l-.508-39.706 31.825 23.748a16.734 16.734 0 0015.382 2.437l37.606-12.753-12.753 37.607a16.726 16.726 0 002.437 15.382l23.748 31.825-39.707-.508zM173.373 67.274l-13.359-24.426-13.358 24.426-24.426 13.358 24.426 13.36 13.358 24.425 13.359-24.425 24.426-13.36zM362.946 384.489l-10.806-19.758-10.805 19.758-19.758 10.805 19.758 10.806 10.805 19.756 10.806-19.756 19.757-10.806zM378.142 19.757L367.337 0l-10.806 19.757-19.757 10.806 19.757 10.806 10.806 19.757 10.805-19.757L397.9 30.563zM490.635 142.513l-6.468-11.824-6.466 11.824-11.825 6.466 11.825 6.467 6.466 11.824 6.468-11.824 11.823-6.467zM492.626 294.117l-26.75 7.834-26.748-7.834 7.834 26.748-7.834 26.75 26.748-7.834 26.75 7.834-7.835-26.75z"/></symbol></svg>