<svg width="14" height="16" viewBox="0 0 14 16" fill="none" xmlns="http://www.w3.org/2000/svg">
<path fill-rule="evenodd" clip-rule="evenodd" d="M0 2L7 0L14 2V8.02C14 12.69 8.69 16 7 16C5.31 16 0 12.69 0 8.02V2ZM1 2.75L7 1L13 2.75V8.0175C13 12.1038 8.44857 15 7 15C5.55143 15 1 12.1038 1 8.0175V2.75Z" fill="#7C7E80"/>
<path fill-rule="evenodd" clip-rule="evenodd" d="M6 10H8V12H6V10V10Z" fill="#7C7E80"/>
<path fill-rule="evenodd" clip-rule="evenodd" d="M10 6.5C10 8.64 8 9 8 9H6C6 8.45 6.45 8 7 8H7.5C7.78 8 8 7.78 8 7.5V6.5C8 6.22 7.78 6 7.5 6H6.5C6.22 6 6 6.22 6 6.5V7H4C4 5.5 5.5 4 7 4C8.5 4 10 5 10 6.5V6.5Z" fill="#7C7E80"/>
</svg>
