<svg width="14" height="16" viewBox="0 0 14 16" fill="none" xmlns="http://www.w3.org/2000/svg">
<path fill-rule="evenodd" clip-rule="evenodd" d="M0 2L7 0L14 2V8.02C14 12.69 8.69 16 7 16C5.31 16 0 12.69 0 8.02V2ZM1 2.75L7 1L13 2.75V8.0175C13 12.1038 8.44857 15 7 15C5.55143 15 1 12.1038 1 8.0175V2.75Z" fill="#7C7E80"/>
<path fill-rule="evenodd" clip-rule="evenodd" d="M7.98667 8L10.4867 10.5781L9.5 11.5956L7 9.0175L4.5 11.5956L3.51333 10.5781L6.01333 8L3.51333 5.42188L4.5 4.40438L7 6.9825L9.5 4.40438L10.4867 5.42188L7.98667 8V8Z" fill="#7C7E80"/>
</svg>
