<svg width="51" height="41" viewBox="0 0 51 41" fill="none" xmlns="http://www.w3.org/2000/svg">
<path d="M37.4667 0.5H13.5333C13.3513 0.5 13.1727 0.549676 13.0169 0.643672L1.34511 7.68264C0.876576 7.9652 0.722118 8.57185 0.998477 9.04406L5.10104 16.0542C5.37839 16.5281 5.986 16.6897 6.46216 16.4162L11.2468 13.6681C11.9135 13.2852 12.7449 13.7665 12.7449 14.5353V39.5C12.7449 40.0523 13.1926 40.5 13.7449 40.5H37.2551C37.8074 40.5 38.2551 40.0523 38.2551 39.5V14.5353C38.2551 13.7665 39.0865 13.2852 39.7532 13.6681L44.5378 16.4162C45.014 16.6897 45.6216 16.5281 45.899 16.0542L50.0015 9.04406C50.2779 8.57185 50.1234 7.9652 49.6549 7.68264L37.9831 0.643672C37.8273 0.549675 37.6487 0.5 37.4667 0.5Z" stroke="#474747"/>
</svg>
