<svg width="20" height="20" viewBox="0 0 20 20" fill="none" xmlns="http://www.w3.org/2000/svg">
<g clip-path="url(#clip0_130_12)">
<path d="M19.6781 12.0413C19.4708 11.8328 19.1965 11.7187 18.9044 11.7187H13.4357C12.8329 11.7187 12.3438 12.2079 12.3438 12.8109V13.7375C12.3438 14.0289 12.457 14.3092 12.6643 14.5164C12.8713 14.7232 13.1448 14.8437 13.4357 14.8437H14.8822C13.5999 16.0938 11.8363 16.8795 9.98835 16.8795C7.06835 16.8795 4.45876 15.026 3.49469 12.272C3.27551 11.6458 2.68282 11.2239 2.0199 11.2239C1.84445 11.2239 1.67063 11.2527 1.50364 11.311C1.10965 11.4491 0.793066 11.7318 0.612091 12.1076C0.430952 12.4836 0.407213 12.9078 0.545099 13.3014C1.94737 17.3071 5.73583 19.9982 9.98185 19.9982C12.5888 19.9982 15.0001 19.0247 16.875 17.2479V18.2731C16.875 18.8762 17.3784 19.3751 17.9817 19.3751H18.9082C19.5114 19.3751 20.0001 18.8762 20.0001 18.2731V12.8146C20.0001 12.5226 19.8862 12.2481 19.6781 12.0413Z" fill="#A60F0F"/>
<path d="M19.4564 6.69829C18.0541 2.69277 14.2649 0.00170898 10.0189 0.00170898C7.41171 0.00170898 5 0.975368 3.12504 2.75212V1.72691C3.12504 1.12399 2.62325 0.624798 2.02 0.624798H1.09333C0.490244 0.624798 0 1.12399 0 1.72691V7.18529C0 7.47716 0.114797 7.74903 0.322927 7.95618C0.530081 8.16464 0.805041 8.27862 1.09707 8.27862L1.09382 8.28106H6.56553C7.16878 8.28106 7.65626 7.79212 7.65626 7.18919V6.26236C7.65626 5.65927 7.16878 5.15602 6.56553 5.15602H5.11935C6.40163 3.90594 8.16537 3.12041 10.0133 3.12041C12.9333 3.12041 15.5428 4.9739 16.5068 7.72805C16.726 8.35423 17.3185 8.77602 17.9816 8.77602C18.1572 8.77602 18.3307 8.7474 18.4979 8.68886C18.892 8.55081 19.2085 8.26821 19.3894 7.89228C19.5704 7.51618 19.5943 7.09228 19.4564 6.69829Z" fill="#18993C"/>
</g>
<defs>
<clipPath id="clip0_130_12">
<rect width="20" height="20"/>
</clipPath>
</defs>
</svg>
