<svg xmlns="http://www.w3.org/2000/svg" fill="none" viewBox="0 0 20 14"><g fill="currentColor" clip-path="url(#fl-var-icon--)"><path d="M20 11.369V0H0v11.369h9.375v1.387H6.25V14h7.5v-1.244h-3.125v-1.387H20ZM1.25.978h17.5v9.413H1.25V.978Z"/><path d="M3.879 3.133 5.17 7.174h.05l1.294-4.041h1.252L5.924 8.452H4.468l-1.844-5.32h1.255ZM8.62 8.452H7.41l1.844-5.32h1.456l1.842 5.32h-1.21l-1.34-4.104h-.041L8.62 8.452Zm-.076-2.09h2.86v.877h-2.86v-.878ZM13.195 8.452v-5.32h2.108c.403 0 .748.072 1.033.216.287.142.505.344.655.605.151.26.227.566.227.917 0 .353-.077.657-.23.912a1.487 1.487 0 0 1-.665.582c-.289.135-.638.202-1.049.202h-1.411v-.904h1.229c.215 0 .394-.029.537-.088a.638.638 0 0 0 .318-.265.834.834 0 0 0 .107-.439.868.868 0 0 0-.107-.447.655.655 0 0 0-.32-.275 1.322 1.322 0 0 0-.54-.096h-.762v4.4h-1.13Zm2.885-2.42 1.328 2.42h-1.247l-1.3-2.42h1.22Z"/></g><defs><clipPath id="fl-var-icon--"><path fill="#fff" d="M0 0h20v14H0z"/></clipPath></defs></svg>
